<svg width="13" height="10" viewBox="0 0 13 10" fill="none" xmlns="http://www.w3.org/2000/svg">
<path d="M0.789939 2.79006C0.69621 2.88302 0.621816 2.99363 0.571048 3.11548C0.520279 3.23734 0.49414 3.36805 0.49414 3.50006C0.49414 3.63207 0.520279 3.76278 0.571048 3.88464C0.621816 4.0065 0.69621 4.1171 0.789939 4.21006L5.78994 9.21006C5.8829 9.30379 5.9935 9.37818 6.11536 9.42895C6.23722 9.47972 6.36793 9.50586 6.49994 9.50586C6.63195 9.50586 6.76266 9.47972 6.88452 9.42895C7.00637 9.37818 7.11698 9.30379 7.20994 9.21006L12.2099 4.21006C12.3037 4.1171 12.3781 4.0065 12.4288 3.88464C12.4796 3.76278 12.5057 3.63207 12.5057 3.50006C12.5057 3.36805 12.4796 3.23734 12.4288 3.11548C12.3781 2.99362 12.3037 2.88302 12.2099 2.79006C12.117 2.69633 12.0064 2.62194 11.8845 2.57117C11.7627 2.5204 11.632 2.49426 11.4999 2.49426C11.3679 2.49426 11.2372 2.5204 11.1154 2.57117C10.9935 2.62194 10.8829 2.69633 10.7899 2.79006L6.49994 7.09006L2.20994 2.79006C2.11698 2.69633 2.00637 2.62194 1.88452 2.57117C1.76266 2.5204 1.63195 2.49426 1.49994 2.49426C1.36793 2.49426 1.23722 2.5204 1.11536 2.57117C0.993503 2.62194 0.882902 2.69633 0.789939 2.79006Z" fill="#4E4E4E"/>
</svg>
