<svg width="1263" height="586" viewBox="0 0 1263 586" fill="none" xmlns="http://www.w3.org/2000/svg">
<circle cx="538" cy="32" r="31.5" fill="url(#paint0_linear_64_4)" stroke="#CCD1D5"/>
<circle cx="83" cy="96" r="13.5" fill="url(#paint1_linear_64_4)" stroke="#CCD1D5"/>
<circle cx="489" cy="298" r="10.5" fill="url(#paint2_linear_64_4)" stroke="#CCD1D5"/>
<circle cx="14" cy="389" r="13" stroke="#CCD1D5" stroke-width="2"/>
<circle cx="22" cy="375" r="13.5" fill="url(#paint3_linear_64_4)" stroke="#CCD1D5"/>
<ellipse cx="904" cy="62.5" rx="15" ry="47.5" stroke="#D2D7DA" stroke-width="2"/>
<ellipse cx="904.5" cy="62" rx="15" ry="47.5" transform="rotate(90 904.5 62)" stroke="#D2D7DA" stroke-width="2"/>
<path d="M1151 572L1151 63" stroke="#CCD1D5" stroke-width="2"/>
<circle cx="1151.5" cy="61.5" r="20.5" fill="#E0E4B1"/>
<circle cx="1151.5" cy="61.5" r="29" stroke="#B5C1B3"/>
<path d="M735 569L735 228" stroke="#CCD1D5" stroke-width="2"/>
<mask id="path-12-inside-1_64_4" fill="white">
<path fill-rule="evenodd" clip-rule="evenodd" d="M755 161C755 165.73 753.358 170.076 750.613 173.5C753.358 176.924 755 181.27 755 186C755 190.73 753.358 195.076 750.613 198.5C753.358 201.924 755 206.27 755 211C755 222.046 746.046 231 735 231C723.954 231 715 222.046 715 211C715 206.27 716.642 201.924 719.387 198.5C716.642 195.076 715 190.73 715 186C715 181.27 716.642 176.924 719.387 173.5C716.642 170.076 715 165.73 715 161C715 149.954 723.954 141 735 141C746.046 141 755 149.954 755 161Z"/>
</mask>
<path fill-rule="evenodd" clip-rule="evenodd" d="M755 161C755 165.73 753.358 170.076 750.613 173.5C753.358 176.924 755 181.27 755 186C755 190.73 753.358 195.076 750.613 198.5C753.358 201.924 755 206.27 755 211C755 222.046 746.046 231 735 231C723.954 231 715 222.046 715 211C715 206.27 716.642 201.924 719.387 198.5C716.642 195.076 715 190.73 715 186C715 181.27 716.642 176.924 719.387 173.5C716.642 170.076 715 165.73 715 161C715 149.954 723.954 141 735 141C746.046 141 755 149.954 755 161Z" fill="#B5C1B3"/>
<path d="M750.613 173.5L749.833 172.875L749.332 173.5L749.833 174.125L750.613 173.5ZM750.613 198.5L749.833 197.875L749.332 198.5L749.833 199.125L750.613 198.5ZM719.387 198.5L720.167 199.125L720.668 198.5L720.167 197.875L719.387 198.5ZM719.387 173.5L720.167 174.125L720.668 173.5L720.167 172.875L719.387 173.5ZM751.394 174.125C754.276 170.53 756 165.965 756 161H754C754 165.494 752.441 169.622 749.833 172.875L751.394 174.125ZM756 186C756 181.035 754.276 176.47 751.394 172.875L749.833 174.125C752.441 177.378 754 181.506 754 186H756ZM751.394 199.125C754.276 195.53 756 190.965 756 186H754C754 190.494 752.441 194.622 749.833 197.875L751.394 199.125ZM749.833 199.125C752.441 202.378 754 206.506 754 211H756C756 206.035 754.276 201.47 751.394 197.875L749.833 199.125ZM754 211C754 221.493 745.493 230 735 230V232C746.598 232 756 222.598 756 211H754ZM735 230C724.507 230 716 221.493 716 211H714C714 222.598 723.402 232 735 232V230ZM716 211C716 206.506 717.559 202.378 720.167 199.125L718.606 197.875C715.724 201.47 714 206.035 714 211H716ZM714 186C714 190.965 715.724 195.53 718.606 199.125L720.167 197.875C717.559 194.622 716 190.494 716 186H714ZM718.606 172.875C715.724 176.47 714 181.035 714 186H716C716 181.506 717.559 177.378 720.167 174.125L718.606 172.875ZM714 161C714 165.965 715.724 170.53 718.606 174.125L720.167 172.875C717.559 169.622 716 165.494 716 161H714ZM735 140C723.402 140 714 149.402 714 161H716C716 150.507 724.507 142 735 142V140ZM756 161C756 149.402 746.598 140 735 140V142C745.493 142 754 150.507 754 161H756Z" fill="#CCD1D5" mask="url(#path-12-inside-1_64_4)"/>
<path d="M792 583L792 320" stroke="#CCD1D5" stroke-width="2"/>
<path d="M748 293L792 337L836 293" stroke="#CCD1D5" stroke-width="2"/>
<path d="M748 312L792 356L836 312" stroke="#CCD1D5" stroke-width="2"/>
<path d="M844 287.5C844 211.009 906.009 149 982.5 149C1058.99 149 1121 211.009 1121 287.5V571H844V287.5Z" stroke="#CCD1D5" stroke-width="2"/>
<path d="M804.163 551.63C814.099 550.275 816.96 546.172 817.148 544.291C817.148 544.102 817.035 543.613 816.583 543.161C816.019 542.597 813.76 543.161 808.679 543.161C803.598 543.161 799.646 542.597 794 540.339C788.355 538.08 788.919 531.87 788.919 530.741C788.919 529.612 794.565 525.66 794.565 523.966C794.565 522.272 795.694 517.756 799.646 513.804C802.808 510.642 808.491 507.97 810.938 507.029C811.314 504.018 812.406 497.996 813.76 497.996C815.454 497.996 829.569 512.674 833.521 512.674C837.473 512.674 843.683 507.593 847.07 504.77C850.458 501.948 861.749 491.785 871.912 481.623C882.074 471.461 884.897 467.509 891.107 460.734C897.317 453.959 910.303 447.184 924.417 443.232C938.531 439.28 943.048 443.232 949.258 442.103C955.469 440.974 961.114 435.892 965.066 431.376C969.007 426.872 971.264 415.07 972.396 409.148L972.406 409.098C973.535 403.193 972.406 396.372 972.406 391.856C972.406 387.339 970.147 381.129 969.583 375.483C969.018 369.837 970.147 361.933 970.147 359.675C970.147 357.417 971.841 351.206 975.229 351.771C978.616 352.335 979.181 362.498 979.181 367.579C979.181 372.66 980.874 383.952 981.439 388.468C982.004 392.985 983.133 407.664 980.874 420.649C978.616 433.634 970.712 443.232 966.195 447.184C962.582 450.345 953.775 455.652 949.823 457.911C950.011 462.239 950.387 471.461 950.387 473.719C950.387 476.542 948.129 486.704 948.129 490.656C948.129 494.608 949.258 503.641 949.258 507.593C949.258 511.545 948.129 514.933 947 518.32C945.871 521.708 943.048 530.176 941.354 533.564L938.531 539.209H930.063V531.87V526.224C930.063 523.063 930.816 520.39 931.192 519.449C930.816 519.449 929.498 518.772 927.24 516.062C924.982 513.352 924.417 511.545 924.417 510.981L899.011 527.918C891.107 533.375 871.46 546.662 856.104 556.147C840.747 565.631 835.402 566.497 834.65 565.744H755.045C755.986 564.051 758.432 559.986 760.691 557.276C762.949 554.566 769.159 554.265 771.982 554.453C778.569 554.077 794.226 552.985 804.163 551.63Z" fill="#9AA5AC" stroke="#CCD1D5"/>
<path d="M874.17 561.792C884.897 553.888 911.206 540.677 917.078 537.516C921.263 535.262 922.637 534.404 922.877 534.166L922.723 534.128C922.885 534.074 922.973 534.07 922.877 534.166L952.646 541.468V561.792C927.24 562.169 876.202 562.922 875.299 562.922C874.396 562.922 874.17 562.169 874.17 561.792Z" fill="white" stroke="#CCD1D5"/>
<path d="M925.546 299.265L936.838 276.118L952.5 248H942L940.5 243L938.5 237.5C937.371 236.371 932.715 233.443 930.5 233C927.677 232.435 924.982 232.081 923.288 232.646L916.513 227L909.738 228.694C905.41 230.199 895.285 234.339 889.413 238.856C883.542 243.373 881.941 244.865 881 247.5L875.299 260.874C874.734 263.321 873.605 268.891 873.605 271.601C873.605 274.989 874.734 298.136 873.605 304.347C872.476 310.557 867.395 328.623 866.266 331.446C865.137 334.269 860.62 350.077 859.491 354.594C858.362 359.11 855.539 375.483 862.878 395.243C870.218 415.003 891.107 420.084 897.317 421.213C902.286 422.117 914.443 422.343 919.9 422.343L925.546 299.265Z" fill="#9AA5AC"/>
<path d="M943.612 258.616L948.693 252.97V251.277H944.177C941.919 251.277 940.225 249.018 939.096 248.454C937.967 247.889 937.402 243.373 936.837 242.243C936.273 241.114 935.708 237.727 934.015 236.598C932.66 235.694 925.546 235.845 922.159 236.033L920.465 233.775C919.524 232.646 917.416 230.387 916.513 230.387C915.609 230.387 914.631 231.14 914.255 231.517L897.317 237.727C896.753 238.291 894.607 239.872 895.059 241.679C895.624 243.937 904.657 245.631 905.221 246.196C905.786 246.76 906.915 252.97 906.35 254.664C905.786 256.358 902.398 258.052 902.398 260.874C902.398 263.697 905.786 266.52 909.738 265.956C913.69 265.391 919.336 260.31 923.852 257.487C927.465 255.229 938.531 257.299 943.612 258.616Z" fill="white"/>
<path d="M963.937 298.701L962.243 298.136C961.679 298.325 960.324 298.927 959.421 299.83C958.291 300.959 956.033 304.911 955.469 306.605C955.017 307.96 953.398 315.826 952.646 319.59L950.387 357.417C949.446 367.203 947.564 387.791 947.564 391.856C947.564 395.921 946.435 404.088 945.871 407.664C943.236 416.885 937.628 436.344 936.273 440.409C934.579 445.49 926.675 470.896 926.111 473.719C925.659 475.977 925.17 488.586 924.982 494.608L923.288 503.077C921.594 509.663 918.094 523.401 917.642 525.66C917.077 528.483 910.867 536.387 908.044 536.951C905.221 537.516 904.092 526.224 904.092 521.143C904.092 516.062 905.221 491.221 906.915 475.977C908.27 463.782 915.76 435.14 919.336 422.343L919.9 416.132C921.03 408.04 923.288 391.065 923.288 387.904C923.288 383.952 923.288 341.609 921.029 315.074C918.771 288.539 926.675 285.716 932.886 278.941C939.096 272.166 953.775 272.166 966.195 273.86C978.616 275.553 980.31 282.328 980.31 287.409C980.31 292.491 976.922 295.878 974.099 301.524L966.76 316.203L957.727 315.638C957.915 315.262 958.291 314.057 958.291 312.251C958.291 310.444 962.055 302.465 963.937 298.701Z" fill="white"/>
<path d="M953.775 312.251C953.323 314.961 953.022 318.461 952.646 320.719L957.162 320.155V317.332L957.5 314.5L958.856 310.557L960.55 306.04C960.926 304.911 963.937 298.701 963.937 298.701L962.244 298.136C961.679 298.136 961.001 298.249 958.291 300.959C954.904 304.347 954.339 308.863 953.775 312.251Z" fill="#9AA5AC"/>
<path d="M952.646 541.468V562.357V562.922L1116.94 561.792L1120.32 560.099C1121.45 559.534 1126.07 557.102 1130.5 548C1140 528.5 1138.13 498.098 1137 488.5C1135.87 478.902 1132.18 455.088 1127.66 439.28C1123.15 423.472 1119.19 404.841 1114.68 389.597C1110.16 374.354 1102.82 351.771 1098.31 339.915C1093.79 328.059 1080.94 301.845 1075.16 294.184C1072 290 1057.09 274.989 1050.32 268.214C1044.9 262.794 1029.24 252.406 1022.09 247.889C1017.95 243.561 1005.83 234.452 990.472 232.646C975.116 230.839 959.42 241.679 955.468 247.889H952.081L936.273 276.118C936.649 275.93 938.983 275.779 943.048 274.424C948.129 272.73 955.468 272.166 968.454 274.424C981.439 276.683 982.003 284.022 979.745 291.926C977.939 298.249 970.336 310.745 966.76 316.203L957 315.5L956.598 320.719L980.5 319L1004.02 320.155L1012.5 324L1013.5 328L1014 334.5C1013.62 340.899 1012.49 356.4 1012.49 363.627C1012.49 372.66 1014.75 382.258 1017.57 390.162C1019.83 396.485 1037.71 417.261 1046.36 426.859L1058.22 456.782V460.734C1058.41 462.427 1058.9 466.154 1059.35 467.509C1059.8 468.863 1065.18 497.055 1067.82 510.981C1065.75 511.357 1060.59 512.223 1056.53 512.674C1051.45 513.239 1022.09 517.756 1006.84 520.578C994.65 522.837 965.631 535.446 952.646 541.468Z" fill="#9AA5AC"/>
<rect x="701.975" y="562.921" width="560.057" height="22.583" rx="2" fill="#9AA5AC"/>
<rect x="704.233" y="567.438" width="554.412" height="3.38744" fill="white"/>
<rect x="704.233" y="573.084" width="554.412" height="3.38744" fill="white"/>
<rect x="704.233" y="578.73" width="554.412" height="3.38744" fill="white"/>
<path d="M1017.57 390.162C1010.35 376.16 1012.3 347.442 1014.18 333.704C1013.81 332.011 1013.06 328.059 1013.06 325.8C1013.06 322.978 1011.36 324.107 1006.28 320.719C1002.22 318.009 969.395 319.59 953.21 320.719C951.705 344.62 947.79 394.791 946.435 404.276C944.742 416.132 927.24 468.638 926.111 473.719C925.207 477.784 924.605 490.468 924.417 496.302C923.664 500.254 921.82 509.739 920.465 516.062C918.771 523.966 911.996 536.951 909.738 536.951C907.48 536.951 905.786 536.387 904.657 529.612C903.528 522.837 904.092 488.962 908.609 468.638C912.222 452.378 916.889 430.999 918.771 422.343H914.255H906.915C903.528 422.343 891.107 421.213 881.509 416.697C871.912 412.18 861.749 395.808 858.926 385.645C856.103 375.483 858.926 350.077 863.443 339.35C867.96 328.623 873.605 305.476 874.17 301.524C874.734 297.572 874.17 290.797 873.605 276.683C873.041 262.568 876.993 259.181 879.251 251.277C881.509 243.373 889.413 238.856 894.495 235.469C899.576 232.081 913.69 227 915.384 227C916.739 227 921.218 230.764 923.288 232.646L932.321 233.21C935.144 234.904 937.817 237.013 938.531 237.727C939.66 238.856 941.166 244.502 941.919 247.889H955.469C956.974 244.314 964.389 236.372 982.003 233.21C1004.02 229.258 1019.83 247.325 1033.94 255.793C1045.24 262.568 1060.48 277.812 1066.69 284.587C1069.89 287.409 1079.11 298.814 1090.4 321.848C1104.52 350.642 1113.55 381.129 1128.79 443.232C1144.04 505.335 1136.7 531.305 1132.18 543.726C1128.57 553.663 1120.51 560.287 1116.94 562.357H952.081C927.052 563.11 876.315 564.164 873.605 562.357C870.962 560.595 903.917 543.289 921.955 534.231C922.819 533.798 923.803 533.697 924.739 533.94L953.775 541.468C967.889 535.446 991.972 522.217 1014.18 518.885C1036.77 515.497 1054.83 512.674 1067.82 510.981C1067.25 508.722 1065.33 500.706 1064.43 495.737C1063.3 489.527 1058.22 466.379 1058.22 459.04C1058.22 451.7 1047.49 430.247 1046.36 426.859C1045.24 423.472 1026.6 407.664 1017.57 390.162Z" stroke="#CCD1D5"/>
<defs>
<linearGradient id="paint0_linear_64_4" x1="560.634" y1="15.6098" x2="509.902" y2="69.4634" gradientUnits="userSpaceOnUse">
<stop stop-color="#B5C1B3"/>
<stop offset="0.779873" stop-color="#97A8AD"/>
<stop offset="1" stop-color="#97A8AD"/>
</linearGradient>
<linearGradient id="paint1_linear_64_4" x1="92.9024" y1="88.8293" x2="58.5" y2="126.5" gradientUnits="userSpaceOnUse">
<stop stop-color="#E0E4B1"/>
<stop offset="0.720551" stop-color="#97A8AD"/>
<stop offset="1" stop-color="#97A8AD"/>
</linearGradient>
<linearGradient id="paint2_linear_64_4" x1="496.78" y1="292.366" x2="469.75" y2="321.964" gradientUnits="userSpaceOnUse">
<stop stop-color="#E0E4B1"/>
<stop offset="0.720551" stop-color="#97A8AD"/>
<stop offset="1" stop-color="#97A8AD"/>
</linearGradient>
<linearGradient id="paint3_linear_64_4" x1="31.9024" y1="367.829" x2="-2.5" y2="405.5" gradientUnits="userSpaceOnUse">
<stop stop-color="#E0E4B1"/>
<stop offset="0.720551" stop-color="#97A8AD"/>
<stop offset="1" stop-color="#97A8AD"/>
</linearGradient>
</defs>
</svg>
