<svg width="252" height="72" viewBox="0 0 252 72" fill="none" xmlns="http://www.w3.org/2000/svg">
<mask id="path-1-inside-1_37_304" fill="white">
<path fill-rule="evenodd" clip-rule="evenodd" d="M36 0C16.1177 0 0 16.1178 0 36C0 55.8823 16.1178 72 36 72H145C158.651 72 170.528 64.4018 176.631 53.2038C177.711 51.2232 183.289 51.2232 184.369 53.2038C190.472 64.4018 202.349 72 216 72C235.882 72 252 55.8823 252 36C252 16.1177 235.882 0 216 0C202.349 0 190.472 7.59823 184.369 18.7962C183.289 20.7768 177.711 20.7768 176.631 18.7962C170.528 7.59823 158.651 0 145 0H36Z"/>
</mask>
<path fill-rule="evenodd" clip-rule="evenodd" d="M36 0C16.1177 0 0 16.1178 0 36C0 55.8823 16.1178 72 36 72H145C158.651 72 170.528 64.4018 176.631 53.2038C177.711 51.2232 183.289 51.2232 184.369 53.2038C190.472 64.4018 202.349 72 216 72C235.882 72 252 55.8823 252 36C252 16.1177 235.882 0 216 0C202.349 0 190.472 7.59823 184.369 18.7962C183.289 20.7768 177.711 20.7768 176.631 18.7962C170.528 7.59823 158.651 0 145 0H36Z" fill="#202125"/>
<path d="M184.369 18.7962L178.223 15.4462L184.369 18.7962ZM176.631 18.7962L170.485 22.1462L176.631 18.7962ZM176.631 53.2038L182.777 56.5538L176.631 53.2038ZM184.369 53.2038L178.223 56.5538L184.369 53.2038ZM7 36C7 19.9837 19.9837 7 36 7V-7C12.2518 -7 -7 12.2518 -7 36H7ZM36 65C19.9837 65 7 52.0163 7 36H-7C-7 59.7482 12.2518 79 36 79V65ZM145 65H36V79H145V65ZM170.485 49.8538C165.558 58.8923 155.987 65 145 65V79C161.315 79 175.497 69.9112 182.777 56.5538L170.485 49.8538ZM216 65C205.013 65 195.442 58.8923 190.515 49.8538L178.223 56.5538C185.503 69.9112 199.685 79 216 79V65ZM245 36C245 52.0163 232.016 65 216 65V79C239.748 79 259 59.7482 259 36H245ZM216 7C232.016 7 245 19.9837 245 36H259C259 12.2518 239.748 -7 216 -7V7ZM190.515 22.1462C195.442 13.1077 205.013 7 216 7V-7C199.685 -7 185.503 2.08881 178.223 15.4462L190.515 22.1462ZM145 7C155.987 7 165.558 13.1077 170.485 22.1462L182.777 15.4462C175.497 2.08882 161.315 -7 145 -7V7ZM36 7H145V-7H36V7ZM178.223 15.4462C178.697 14.5764 179.29 14.0469 179.681 13.7648C180.071 13.4847 180.377 13.3628 180.497 13.3198C180.713 13.2425 180.706 13.2817 180.5 13.2817C180.294 13.2817 180.287 13.2425 180.503 13.3198C180.623 13.3628 180.929 13.4847 181.319 13.7648C181.71 14.0469 182.303 14.5764 182.777 15.4462L170.485 22.1462C171.933 24.8034 174.35 25.9874 175.785 26.5009C177.384 27.0733 179.041 27.2817 180.5 27.2817C181.959 27.2817 183.616 27.0733 185.215 26.5009C186.65 25.9874 189.067 24.8034 190.515 22.1462L178.223 15.4462ZM182.777 56.5538C182.303 57.4236 181.71 57.9531 181.319 58.2352C180.929 58.5153 180.623 58.6372 180.503 58.6802C180.287 58.7575 180.294 58.7183 180.5 58.7183C180.706 58.7183 180.713 58.7575 180.497 58.6802C180.377 58.6372 180.071 58.5153 179.681 58.2352C179.29 57.9531 178.697 57.4236 178.223 56.5538L190.515 49.8538C189.067 47.1966 186.65 46.0126 185.215 45.4991C183.616 44.9267 181.959 44.7183 180.5 44.7183C179.041 44.7183 177.384 44.9267 175.785 45.4991C174.35 46.0126 171.933 47.1966 170.485 49.8538L182.777 56.5538Z" fill="#CCD1D5" mask="url(#path-1-inside-1_37_304)"/>
<path d="M200 37L230 37" stroke="white" stroke-width="2"/>
<path d="M216 25C218.333 29 224.4 37 230 37" stroke="white" stroke-width="2"/>
<path d="M216 47C218.333 43.6667 224.4 37 230 37" stroke="white" stroke-width="2"/>
<path d="M41.332 35.988C41.332 36.7627 41.234 37.4673 41.038 38.102C40.8513 38.7273 40.562 39.2687 40.17 39.726C39.7873 40.1833 39.2927 40.5333 38.686 40.776C38.0887 41.0187 37.384 41.14 36.572 41.14C35.76 41.14 35.0507 41.0187 34.444 40.776C33.8467 40.524 33.352 40.174 32.96 39.726C32.5773 39.2687 32.288 38.7227 32.092 38.088C31.9053 37.4533 31.812 36.7487 31.812 35.974C31.812 34.938 31.98 34.0373 32.316 33.272C32.6613 32.5067 33.184 31.914 33.884 31.494C34.5933 31.0647 35.494 30.85 36.586 30.85C37.6687 30.85 38.56 31.0647 39.26 31.494C39.96 31.914 40.478 32.5113 40.814 33.286C41.1593 34.0513 41.332 34.952 41.332 35.988ZM34.038 35.988C34.038 36.688 34.1267 37.29 34.304 37.794C34.4813 38.298 34.7567 38.6853 35.13 38.956C35.5033 39.2267 35.984 39.362 36.572 39.362C37.1787 39.362 37.664 39.2267 38.028 38.956C38.4013 38.6853 38.672 38.298 38.84 37.794C39.0173 37.29 39.106 36.688 39.106 35.988C39.106 34.9333 38.91 34.1073 38.518 33.51C38.126 32.9127 37.482 32.614 36.586 32.614C35.9887 32.614 35.5033 32.7493 35.13 33.02C34.7567 33.2907 34.4813 33.678 34.304 34.182C34.1267 34.686 34.038 35.288 34.038 35.988ZM46.3426 41.14C45.5866 41.14 44.9426 41.0047 44.4106 40.734C43.8786 40.454 43.4726 40.0247 43.1926 39.446C42.9126 38.8673 42.7726 38.1253 42.7726 37.22C42.7726 36.2867 42.9312 35.526 43.2486 34.938C43.5659 34.35 44.0046 33.916 44.5646 33.636C45.1339 33.356 45.7872 33.216 46.5246 33.216C47.0472 33.216 47.4999 33.2673 47.8826 33.37C48.2746 33.4727 48.6152 33.594 48.9046 33.734L48.2886 35.344C47.9619 35.2133 47.6539 35.106 47.3646 35.022C47.0846 34.938 46.8046 34.896 46.5246 34.896C46.1606 34.896 45.8572 34.9847 45.6146 35.162C45.3719 35.33 45.1899 35.5867 45.0686 35.932C44.9566 36.268 44.9006 36.6927 44.9006 37.206C44.9006 37.71 44.9612 38.13 45.0826 38.466C45.2132 38.7927 45.3999 39.04 45.6426 39.208C45.8852 39.3667 46.1792 39.446 46.5246 39.446C46.9632 39.446 47.3506 39.39 47.6866 39.278C48.0226 39.1567 48.3492 38.9933 48.6666 38.788V40.566C48.3492 40.7713 48.0132 40.916 47.6586 41C47.3132 41.0933 46.8746 41.14 46.3426 41.14ZM56.754 34.924H54.248V41H52.162V34.924H49.656V33.356H56.754V34.924ZM61.3003 33.202C62.3269 33.202 63.1109 33.426 63.6523 33.874C64.2029 34.3127 64.4783 34.9893 64.4783 35.904V41H63.0223L62.6163 39.964H62.5603C62.3456 40.2347 62.1216 40.4587 61.8883 40.636C61.6643 40.8133 61.4029 40.9393 61.1043 41.014C60.8149 41.098 60.4556 41.14 60.0263 41.14C59.5783 41.14 59.1723 41.056 58.8083 40.888C58.4536 40.7107 58.1736 40.4447 57.9683 40.09C57.7629 39.726 57.6603 39.2687 57.6603 38.718C57.6603 37.906 57.9449 37.3087 58.5143 36.926C59.0836 36.534 59.9376 36.3193 61.0763 36.282L62.4063 36.24V35.904C62.4063 35.5027 62.2989 35.2087 62.0843 35.022C61.8789 34.8353 61.5896 34.742 61.2163 34.742C60.8429 34.742 60.4789 34.798 60.1243 34.91C59.7696 35.0127 59.4149 35.1433 59.0603 35.302L58.3743 33.888C58.7849 33.6733 59.2376 33.5053 59.7323 33.384C60.2363 33.2627 60.7589 33.202 61.3003 33.202ZM61.5943 37.486C60.9223 37.5047 60.4556 37.626 60.1943 37.85C59.9329 38.074 59.8023 38.368 59.8023 38.732C59.8023 39.0493 59.8956 39.278 60.0823 39.418C60.2689 39.5487 60.5116 39.614 60.8103 39.614C61.2583 39.614 61.6363 39.4833 61.9443 39.222C62.2523 38.9513 62.4063 38.5733 62.4063 38.088V37.458L61.5943 37.486ZM73.3895 35.358C73.3895 35.7687 73.2588 36.1187 72.9975 36.408C72.7455 36.6973 72.3675 36.884 71.8635 36.968V37.024C72.3955 37.0893 72.8202 37.2713 73.1375 37.57C73.4642 37.8687 73.6275 38.2513 73.6275 38.718C73.6275 39.0447 73.5622 39.348 73.4315 39.628C73.3102 39.908 73.1142 40.1507 72.8435 40.356C72.5728 40.5613 72.2228 40.72 71.7935 40.832C71.3735 40.944 70.8602 41 70.2535 41H66.6135V33.356H70.2535C70.8508 33.356 71.3828 33.4213 71.8495 33.552C72.3255 33.6733 72.6988 33.8787 72.9695 34.168C73.2495 34.4573 73.3895 34.854 73.3895 35.358ZM71.4715 38.606C71.4715 38.3073 71.3548 38.0927 71.1215 37.962C70.8882 37.822 70.5382 37.752 70.0715 37.752H68.6995V39.558H70.1135C70.5055 39.558 70.8275 39.488 71.0795 39.348C71.3408 39.1987 71.4715 38.9513 71.4715 38.606ZM71.2755 35.526C71.2755 35.2833 71.1822 35.106 70.9955 34.994C70.8088 34.882 70.5335 34.826 70.1695 34.826H68.6995V36.338H69.9315C70.3702 36.338 70.7015 36.2773 70.9255 36.156C71.1588 36.0253 71.2755 35.8153 71.2755 35.526ZM78.9742 36.31C79.7582 36.31 80.4068 36.394 80.9202 36.562C81.4335 36.7207 81.8115 36.968 82.0542 37.304C82.3062 37.64 82.4322 38.06 82.4322 38.564C82.4322 39.0587 82.3155 39.488 82.0822 39.852C81.8582 40.216 81.4988 40.5007 81.0042 40.706C80.5095 40.902 79.8608 41 79.0582 41H75.4182V33.356H77.5042V36.31H78.9742ZM80.3462 38.592C80.3462 38.2933 80.2248 38.0787 79.9822 37.948C79.7488 37.8173 79.3988 37.752 78.9322 37.752H77.5042V39.558H78.9602C79.3708 39.558 79.7022 39.4833 79.9542 39.334C80.2155 39.1847 80.3462 38.9373 80.3462 38.592ZM89.6485 34.924H87.1425V41H85.0565V34.924H82.5505V33.356H89.6485V34.924ZM94.0721 33.216C94.7814 33.216 95.3881 33.3513 95.8921 33.622C96.4054 33.8927 96.8021 34.2847 97.0821 34.798C97.3621 35.3113 97.5021 35.9413 97.5021 36.688V37.696H92.5741C92.5927 38.284 92.7654 38.746 93.0921 39.082C93.4281 39.418 93.8901 39.586 94.4781 39.586C94.9727 39.586 95.4207 39.5393 95.8221 39.446C96.2234 39.3433 96.6387 39.1893 97.0681 38.984V40.594C96.6947 40.7807 96.2981 40.916 95.8781 41C95.4674 41.0933 94.9681 41.14 94.3801 41.14C93.6147 41.14 92.9381 41 92.3501 40.72C91.7621 40.4307 91.3001 39.9967 90.9641 39.418C90.6281 38.8393 90.4601 38.1113 90.4601 37.234C90.4601 36.338 90.6094 35.596 90.9081 35.008C91.2161 34.4107 91.6407 33.9627 92.1821 33.664C92.7234 33.3653 93.3534 33.216 94.0721 33.216ZM94.0861 34.7C93.6847 34.7 93.3487 34.8307 93.0781 35.092C92.8167 35.3533 92.6627 35.7593 92.6161 36.31H95.5421C95.5421 36.002 95.4861 35.7267 95.3741 35.484C95.2714 35.2413 95.1127 35.05 94.8981 34.91C94.6834 34.77 94.4127 34.7 94.0861 34.7ZM104.946 33.216C105.497 33.216 106.01 33.2907 106.486 33.44C106.972 33.58 107.359 33.7993 107.648 34.098C107.947 34.3967 108.096 34.7793 108.096 35.246C108.096 35.7033 107.956 36.0673 107.676 36.338C107.406 36.6087 107.037 36.8047 106.57 36.926V36.996C106.897 37.0707 107.191 37.178 107.452 37.318C107.714 37.4487 107.919 37.6307 108.068 37.864C108.227 38.088 108.306 38.3913 108.306 38.774C108.306 39.194 108.171 39.586 107.9 39.95C107.639 40.3047 107.228 40.594 106.668 40.818C106.118 41.0327 105.408 41.14 104.54 41.14C104.13 41.14 103.742 41.1213 103.378 41.084C103.014 41.0467 102.683 40.9953 102.384 40.93C102.086 40.8553 101.824 40.7667 101.6 40.664V38.942C101.918 39.0913 102.305 39.2267 102.762 39.348C103.229 39.4693 103.724 39.53 104.246 39.53C104.629 39.53 104.97 39.502 105.268 39.446C105.576 39.39 105.819 39.2967 105.996 39.166C106.183 39.0353 106.276 38.8627 106.276 38.648C106.276 38.4427 106.197 38.2747 106.038 38.144C105.88 38.004 105.642 37.9013 105.324 37.836C105.007 37.7707 104.601 37.738 104.106 37.738H103.294V36.296H104.064C104.755 36.296 105.287 36.24 105.66 36.128C106.043 36.016 106.234 35.806 106.234 35.498C106.234 35.2553 106.113 35.0733 105.87 34.952C105.628 34.8213 105.231 34.756 104.68 34.756C104.316 34.756 103.92 34.798 103.49 34.882C103.061 34.966 102.655 35.0873 102.272 35.246L101.656 33.79C102.095 33.622 102.576 33.4867 103.098 33.384C103.621 33.272 104.237 33.216 104.946 33.216ZM113.062 33.202C114.089 33.202 114.873 33.426 115.414 33.874C115.965 34.3127 116.24 34.9893 116.24 35.904V41H114.784L114.378 39.964H114.322C114.107 40.2347 113.883 40.4587 113.65 40.636C113.426 40.8133 113.165 40.9393 112.866 41.014C112.577 41.098 112.217 41.14 111.788 41.14C111.34 41.14 110.934 41.056 110.57 40.888C110.215 40.7107 109.935 40.4447 109.73 40.09C109.525 39.726 109.422 39.2687 109.422 38.718C109.422 37.906 109.707 37.3087 110.276 36.926C110.845 36.534 111.699 36.3193 112.838 36.282L114.168 36.24V35.904C114.168 35.5027 114.061 35.2087 113.846 35.022C113.641 34.8353 113.351 34.742 112.978 34.742C112.605 34.742 112.241 34.798 111.886 34.91C111.531 35.0127 111.177 35.1433 110.822 35.302L110.136 33.888C110.547 33.6733 110.999 33.5053 111.494 33.384C111.998 33.2627 112.521 33.202 113.062 33.202ZM113.356 37.486C112.684 37.5047 112.217 37.626 111.956 37.85C111.695 38.074 111.564 38.368 111.564 38.732C111.564 39.0493 111.657 39.278 111.844 39.418C112.031 39.5487 112.273 39.614 112.572 39.614C113.02 39.614 113.398 39.4833 113.706 39.222C114.014 38.9513 114.168 38.5733 114.168 38.088V37.458L113.356 37.486ZM119.537 41H117.283L119.341 37.976C119.08 37.864 118.833 37.7147 118.599 37.528C118.375 37.332 118.193 37.0847 118.053 36.786C117.913 36.4873 117.843 36.1327 117.843 35.722C117.843 34.9567 118.133 34.3733 118.711 33.972C119.29 33.5613 120.032 33.356 120.937 33.356H124.493V41H122.407V38.158H121.259L119.537 41ZM119.887 35.736C119.887 36.0533 120.013 36.3053 120.265 36.492C120.517 36.6693 120.844 36.758 121.245 36.758H122.407V34.826H120.979C120.606 34.826 120.331 34.9193 120.153 35.106C119.976 35.2833 119.887 35.4933 119.887 35.736ZM133.45 35.358C133.45 35.7687 133.319 36.1187 133.058 36.408C132.806 36.6973 132.428 36.884 131.924 36.968V37.024C132.456 37.0893 132.881 37.2713 133.198 37.57C133.525 37.8687 133.688 38.2513 133.688 38.718C133.688 39.0447 133.623 39.348 133.492 39.628C133.371 39.908 133.175 40.1507 132.904 40.356C132.633 40.5613 132.283 40.72 131.854 40.832C131.434 40.944 130.921 41 130.314 41H126.674V33.356H130.314C130.911 33.356 131.443 33.4213 131.91 33.552C132.386 33.6733 132.759 33.8787 133.03 34.168C133.31 34.4573 133.45 34.854 133.45 35.358ZM131.532 38.606C131.532 38.3073 131.415 38.0927 131.182 37.962C130.949 37.822 130.599 37.752 130.132 37.752H128.76V39.558H130.174C130.566 39.558 130.888 39.488 131.14 39.348C131.401 39.1987 131.532 38.9513 131.532 38.606ZM131.336 35.526C131.336 35.2833 131.243 35.106 131.056 34.994C130.869 34.882 130.594 34.826 130.23 34.826H128.76V36.338H129.992C130.431 36.338 130.762 36.2773 130.986 36.156C131.219 36.0253 131.336 35.8153 131.336 35.526ZM140.491 33.356H142.787L139.763 37.024L143.053 41H140.687L137.565 37.122V41H135.479V33.356H137.565V37.066L140.491 33.356ZM143.055 33.356H145.337L146.779 37.654C146.825 37.794 146.863 37.934 146.891 38.074C146.928 38.214 146.956 38.3587 146.975 38.508C147.003 38.6573 147.021 38.816 147.031 38.984H147.073C147.101 38.7413 147.138 38.5127 147.185 38.298C147.241 38.074 147.301 37.8593 147.367 37.654L148.781 33.356H151.021L147.787 41.98C147.591 42.5027 147.334 42.9413 147.017 43.296C146.709 43.6507 146.349 43.9167 145.939 44.094C145.528 44.2713 145.08 44.36 144.595 44.36C144.361 44.36 144.156 44.346 143.979 44.318C143.811 44.2993 143.661 44.276 143.531 44.248V42.596C143.633 42.6147 143.755 42.6333 143.895 42.652C144.044 42.6707 144.198 42.68 144.357 42.68C144.646 42.68 144.893 42.6193 145.099 42.498C145.313 42.3767 145.491 42.2087 145.631 41.994C145.771 41.7887 145.883 41.5647 145.967 41.322L146.093 40.944L143.055 33.356Z" fill="white"/>
</svg>
