<svg width="76" height="83" viewBox="0 0 76 83" fill="none" xmlns="http://www.w3.org/2000/svg">
<circle cx="36.2552" cy="33.1024" r="31.1024" stroke="#B5BFB4" stroke-width="4"/>
<path d="M15.4486 59.7538C17.9303 63.3766 21.2482 66.3481 25.1216 68.417C28.995 70.4858 33.3098 71.591 37.7009 71.6391C42.0919 71.6871 46.4298 70.6766 50.3476 68.693C54.2653 66.7095 57.6475 63.8112 60.2079 60.2437L38 44.3053L15.4486 59.7538Z" fill="white"/>
<path d="M55.2023 20.5652L56.7 20.4822L56.6257 19.1417L55.2852 19.0675L55.2023 20.5652ZM36.2899 39.4775L34.7922 39.5605L34.8664 40.901L36.2069 40.9753L36.2899 39.4775ZM53.7045 20.6481C53.9544 25.1586 52.3574 29.7464 48.9143 33.1896L51.0356 35.3109C55.1072 31.2393 56.995 25.8087 56.7 20.4822L53.7045 20.6481ZM48.9143 33.1896C45.4712 36.6327 40.8833 38.2297 36.3728 37.9798L36.2069 40.9753C41.5334 41.2703 46.964 39.3825 51.0356 35.3109L48.9143 33.1896ZM37.7876 39.3946C37.5377 34.8841 39.1347 30.2963 42.5779 26.8532L40.4565 24.7318C36.385 28.8034 34.4971 34.2341 34.7922 39.5605L37.7876 39.3946ZM42.5779 26.8532C46.021 23.41 50.6088 21.813 55.1193 22.0629L55.2852 19.0675C49.9588 18.7724 44.5281 20.6603 40.4565 24.7318L42.5779 26.8532Z" fill="#B5BFB4"/>
<path d="M36.1413 39.4776L36.2242 40.9753L37.5647 40.901L37.639 39.5605L36.1413 39.4776ZM17.2289 20.5652L17.1459 19.0675L15.8054 19.1417L15.7312 20.4822L17.2289 20.5652ZM29.8533 26.8531C33.2964 30.2963 34.8934 34.8841 34.6436 39.3946L37.639 39.5605C37.934 34.2341 36.0462 28.8034 31.9746 24.7318L29.8533 26.8531ZM17.3118 22.0629C21.8223 21.813 26.4102 23.41 29.8533 26.8531L31.9746 24.7318C27.903 20.6602 22.4724 18.7724 17.1459 19.0675L17.3118 22.0629ZM23.5169 33.1896C20.0737 29.7465 18.4767 25.1586 18.7266 20.6481L15.7312 20.4822C15.4361 25.8087 17.324 31.2393 21.3955 35.3109L23.5169 33.1896ZM36.0583 37.9799C31.5478 38.2297 26.96 36.6327 23.5169 33.1896L21.3955 35.3109C25.4671 39.3825 30.8978 41.2703 36.2242 40.9753L36.0583 37.9799Z" fill="#B5BFB4"/>
<path d="M36.3931 37.1302V53.5921" stroke="#B5BFB4" stroke-width="3" stroke-linecap="round"/>
<path d="M45.8266 68.4563C45.4346 68.4563 45.0826 68.3763 44.7706 68.2163C44.4666 68.0483 44.2266 67.8203 44.0506 67.5323C43.8826 67.2443 43.7986 66.9203 43.7986 66.5603C43.7986 65.9523 44.0346 65.4843 44.5066 65.1563C44.9866 64.8283 45.6626 64.6643 46.5346 64.6643H47.5786V64.3883C47.5786 64.0283 47.4746 63.7523 47.2666 63.5603C47.0586 63.3683 46.7666 63.2723 46.3906 63.2723C46.0306 63.2723 45.6906 63.3403 45.3706 63.4763C45.0586 63.6043 44.7986 63.7923 44.5906 64.0403L43.9666 63.2363C44.2706 62.9083 44.6386 62.6563 45.0706 62.4803C45.5026 62.3043 45.9586 62.2163 46.4386 62.2163C47.2226 62.2163 47.8346 62.4043 48.2746 62.7803C48.7146 63.1483 48.9346 63.6683 48.9346 64.3403V67.1003C48.9346 67.2683 48.9506 67.4723 48.9826 67.7123C49.0146 67.9443 49.0506 68.1523 49.0906 68.3363H47.8786C47.8066 68.1683 47.7546 67.9163 47.7226 67.5803H47.6986C47.2346 68.1643 46.6106 68.4563 45.8266 68.4563ZM46.1386 67.4243C46.5466 67.4243 46.8866 67.3163 47.1586 67.1003C47.4386 66.8763 47.5786 66.6043 47.5786 66.2843V65.5883H46.4986C46.0586 65.5883 45.7186 65.6723 45.4786 65.8403C45.2466 66.0083 45.1306 66.2483 45.1306 66.5603C45.1306 66.8323 45.2186 67.0443 45.3946 67.1963C45.5706 67.3483 45.8186 67.4243 46.1386 67.4243Z" fill="#202125"/>
<path d="M42.769 62.3363V68.1083C42.769 69.1003 42.521 69.8523 42.025 70.3643C41.529 70.8763 40.801 71.1323 39.841 71.1323C39.393 71.1323 38.969 71.0803 38.569 70.9763C38.169 70.8723 37.813 70.7203 37.501 70.5203L37.945 69.5843C38.233 69.7283 38.537 69.8403 38.857 69.9203C39.177 70.0003 39.485 70.0403 39.781 70.0403C40.909 70.0403 41.473 69.3323 41.473 67.9163V67.6043C41.313 67.8523 41.085 68.0443 40.789 68.1803C40.493 68.3163 40.149 68.3843 39.757 68.3843C38.933 68.3843 38.293 68.1083 37.837 67.5563C37.381 67.0043 37.153 66.2363 37.153 65.2523C37.153 64.2923 37.373 63.5483 37.813 63.0203C38.261 62.4843 38.881 62.2163 39.673 62.2163C40.081 62.2163 40.441 62.2963 40.753 62.4563C41.065 62.6083 41.313 62.8323 41.497 63.1283H41.521L41.629 62.3363H42.769ZM41.401 64.9523C41.401 64.4083 41.277 63.9883 41.029 63.6923C40.789 63.3883 40.445 63.2363 39.997 63.2363C39.525 63.2363 39.157 63.4123 38.893 63.7643C38.637 64.1163 38.509 64.6203 38.509 65.2763C38.509 65.9323 38.637 66.4403 38.893 66.8003C39.149 67.1523 39.513 67.3283 39.985 67.3283C40.433 67.3283 40.781 67.1923 41.029 66.9203C41.277 66.6483 41.401 66.2643 41.401 65.7683V64.9523Z" fill="#202125"/>
<path d="M33.3578 68.4563C32.4138 68.4563 31.6698 68.1803 31.1258 67.6283C30.5898 67.0683 30.3218 66.3043 30.3218 65.3363C30.3218 64.3683 30.5898 63.6083 31.1258 63.0563C31.6698 62.4963 32.4138 62.2163 33.3578 62.2163C34.3018 62.2163 35.0418 62.4963 35.5778 63.0563C36.1218 63.6083 36.3938 64.3683 36.3938 65.3363C36.3938 66.3043 36.1218 67.0683 35.5778 67.6283C35.0418 68.1803 34.3018 68.4563 33.3578 68.4563ZM33.3578 67.4363C33.8778 67.4363 34.2858 67.2523 34.5818 66.8843C34.8778 66.5083 35.0258 65.9923 35.0258 65.3363C35.0258 64.6803 34.8778 64.1683 34.5818 63.8003C34.2858 63.4243 33.8778 63.2363 33.3578 63.2363C32.8378 63.2363 32.4298 63.4243 32.1338 63.8003C31.8378 64.1683 31.6898 64.6803 31.6898 65.3363C31.6898 65.9923 31.8378 66.5083 32.1338 66.8843C32.4298 67.2523 32.8378 67.4363 33.3578 67.4363Z" fill="#202125"/>
<path d="M26.2204 64.9883L23.5084 59.9363H25.1644L26.9764 63.5963L28.7884 59.9363H30.4444L27.7444 64.9883V68.3363H26.2204V64.9883Z" fill="#202125"/>
</svg>
