<svg width="562" height="572" viewBox="0 0 562 572" fill="none" xmlns="http://www.w3.org/2000/svg">
<ellipse cx="203" cy="48.5" rx="15" ry="47.5" stroke="#D2D7DA" stroke-width="2"/>
<ellipse cx="203.5" cy="48" rx="15" ry="47.5" transform="rotate(90 203.5 48)" stroke="#D2D7DA" stroke-width="2"/>
<path d="M450 558L450 49" stroke="#CCD1D5" stroke-width="2"/>
<circle cx="450.5" cy="47.5" r="20.5" fill="#E0E4B1"/>
<circle cx="450.5" cy="47.5" r="29" stroke="#B5C1B3"/>
<path d="M34 555L34 214" stroke="#CCD1D5" stroke-width="2"/>
<mask id="path-7-inside-1_42_330" fill="white">
<path fill-rule="evenodd" clip-rule="evenodd" d="M54 147C54 151.73 52.3582 156.076 49.6134 159.5C52.3582 162.924 54 167.27 54 172C54 176.73 52.3582 181.076 49.6134 184.5C52.3582 187.924 54 192.27 54 197C54 208.046 45.0457 217 34 217C22.9543 217 14 208.046 14 197C14 192.27 15.6418 187.924 18.3866 184.5C15.6418 181.076 14 176.73 14 172C14 167.27 15.6418 162.924 18.3866 159.5C15.6418 156.076 14 151.73 14 147C14 135.954 22.9543 127 34 127C45.0457 127 54 135.954 54 147Z"/>
</mask>
<path fill-rule="evenodd" clip-rule="evenodd" d="M54 147C54 151.73 52.3582 156.076 49.6134 159.5C52.3582 162.924 54 167.27 54 172C54 176.73 52.3582 181.076 49.6134 184.5C52.3582 187.924 54 192.27 54 197C54 208.046 45.0457 217 34 217C22.9543 217 14 208.046 14 197C14 192.27 15.6418 187.924 18.3866 184.5C15.6418 181.076 14 176.73 14 172C14 167.27 15.6418 162.924 18.3866 159.5C15.6418 156.076 14 151.73 14 147C14 135.954 22.9543 127 34 127C45.0457 127 54 135.954 54 147Z" fill="#B5C1B3"/>
<path d="M49.6134 159.5L48.8332 158.875L48.3318 159.5L48.8332 160.125L49.6134 159.5ZM49.6134 184.5L48.8332 183.875L48.3318 184.5L48.8332 185.125L49.6134 184.5ZM18.3866 184.5L19.1668 185.125L19.6682 184.5L19.1668 183.875L18.3866 184.5ZM18.3866 159.5L19.1668 160.125L19.6682 159.5L19.1668 158.875L18.3866 159.5ZM50.3937 160.125C53.2755 156.53 55 151.965 55 147H53C53 151.494 51.4409 155.622 48.8332 158.875L50.3937 160.125ZM55 172C55 167.035 53.2755 162.47 50.3937 158.875L48.8332 160.125C51.4409 163.378 53 167.506 53 172H55ZM50.3937 185.125C53.2755 181.53 55 176.965 55 172H53C53 176.494 51.4409 180.622 48.8332 183.875L50.3937 185.125ZM48.8332 185.125C51.4409 188.378 53 192.506 53 197H55C55 192.035 53.2755 187.47 50.3937 183.875L48.8332 185.125ZM53 197C53 207.493 44.4934 216 34 216V218C45.598 218 55 208.598 55 197H53ZM34 216C23.5066 216 15 207.493 15 197H13C13 208.598 22.402 218 34 218V216ZM15 197C15 192.506 16.5591 188.378 19.1668 185.125L17.6063 183.875C14.7245 187.47 13 192.035 13 197H15ZM13 172C13 176.965 14.7245 181.53 17.6063 185.125L19.1668 183.875C16.5591 180.622 15 176.494 15 172H13ZM17.6063 158.875C14.7245 162.47 13 167.035 13 172H15C15 167.506 16.5591 163.378 19.1668 160.125L17.6063 158.875ZM13 147C13 151.965 14.7245 156.53 17.6063 160.125L19.1668 158.875C16.5591 155.622 15 151.494 15 147H13ZM34 126C22.402 126 13 135.402 13 147H15C15 136.507 23.5066 128 34 128V126ZM55 147C55 135.402 45.598 126 34 126V128C44.4934 128 53 136.507 53 147H55Z" fill="#CCD1D5" mask="url(#path-7-inside-1_42_330)"/>
<path d="M91 569L91 306" stroke="#CCD1D5" stroke-width="2"/>
<path d="M47 279L91 323L135 279" stroke="#CCD1D5" stroke-width="2"/>
<path d="M47 298L91 342L135 298" stroke="#CCD1D5" stroke-width="2"/>
<path d="M420 273.5V557H143V273.5C143 197.009 205.009 135 281.5 135C357.991 135 420 197.009 420 273.5Z" stroke="#CCD1D5" stroke-width="2"/>
<path d="M103.163 537.63C113.099 536.275 115.96 532.172 116.148 530.291C116.148 530.102 116.035 529.613 115.583 529.161C115.019 528.597 112.76 529.161 107.679 529.161C102.598 529.161 98.6461 528.597 93.0004 526.339C87.3547 524.08 87.9192 517.87 87.9192 516.741C87.9192 515.612 93.565 511.66 93.565 509.966C93.565 508.272 94.6941 503.756 98.6461 499.804C101.808 496.642 107.491 493.97 109.938 493.029C110.314 490.018 111.406 483.996 112.76 483.996C114.454 483.996 128.569 498.674 132.521 498.674C136.473 498.674 142.683 493.593 146.07 490.77C149.458 487.948 160.749 477.785 170.912 467.623C181.074 457.461 183.897 453.509 190.107 446.734C196.317 439.959 209.303 433.184 223.417 429.232C237.531 425.28 242.048 429.232 248.258 428.103C254.469 426.974 260.114 421.892 264.066 417.376C268.007 412.872 270.264 401.07 271.396 395.148L271.406 395.098C272.535 389.193 271.406 382.372 271.406 377.856C271.406 373.339 269.147 367.129 268.583 361.483C268.018 355.837 269.147 347.933 269.147 345.675C269.147 343.417 270.841 337.206 274.229 337.771C277.616 338.335 278.181 348.498 278.181 353.579C278.181 358.66 279.874 369.952 280.439 374.468C281.004 378.985 282.133 393.664 279.874 406.649C277.616 419.634 269.712 429.232 265.195 433.184C261.582 436.345 252.775 441.652 248.823 443.911C249.011 448.239 249.387 457.461 249.387 459.719C249.387 462.542 247.129 472.704 247.129 476.656C247.129 480.608 248.258 489.641 248.258 493.593C248.258 497.545 247.129 500.933 246 504.32C244.871 507.708 242.048 516.176 240.354 519.564L237.531 525.209H229.063V517.87V512.224C229.063 509.063 229.816 506.39 230.192 505.449C229.816 505.449 228.498 504.772 226.24 502.062C223.982 499.352 223.417 497.545 223.417 496.981L198.011 513.918C190.107 519.375 170.46 532.662 155.104 542.147C139.747 551.631 134.402 552.497 133.65 551.744H54.0448C54.9858 550.051 57.4322 545.986 59.6905 543.276C61.9488 540.566 68.1592 540.265 70.982 540.453C77.5687 540.077 93.2262 538.985 103.163 537.63Z" fill="#9AA5AC" stroke="#CCD1D5"/>
<path d="M173.17 547.792C183.897 539.888 210.206 526.677 216.078 523.516C220.263 521.262 221.637 520.404 221.877 520.166L221.723 520.128C221.885 520.074 221.973 520.07 221.877 520.166L251.646 527.468V547.792C226.24 548.169 175.202 548.922 174.299 548.922C173.396 548.922 173.17 548.169 173.17 547.792Z" fill="white"/>
<path d="M173.17 547.792C183.897 539.888 210.206 526.677 216.078 523.516C221.949 520.354 222.288 519.94 221.723 520.128L251.646 527.468V547.792C226.24 548.169 175.202 548.922 174.299 548.922C173.396 548.922 173.17 548.169 173.17 547.792Z" stroke="#CCD1D5"/>
<path d="M224.546 285.265L235.838 262.118L251.5 234H241L239.5 229L237.5 223.5C236.371 222.371 231.715 219.443 229.5 219C226.677 218.435 223.982 218.081 222.288 218.646L215.513 213L208.738 214.694C204.41 216.199 194.285 220.339 188.413 224.856C182.542 229.373 180.941 230.865 180 233.5L174.299 246.874C173.734 249.321 172.605 254.891 172.605 257.601C172.605 260.989 173.734 284.136 172.605 290.347C171.476 296.557 166.395 314.623 165.266 317.446C164.137 320.269 159.62 336.077 158.491 340.594C157.362 345.11 154.539 361.483 161.878 381.243C169.218 401.003 190.107 406.084 196.317 407.213C201.286 408.117 213.443 408.343 218.9 408.343L224.546 285.265Z" fill="#9AA5AC"/>
<path d="M242.612 244.616L247.693 238.97V237.277H243.177C240.919 237.277 239.225 235.018 238.096 234.454C236.967 233.889 236.402 229.373 235.837 228.243C235.273 227.114 234.708 223.727 233.015 222.598C231.66 221.694 224.546 221.845 221.159 222.033L219.465 219.775C218.524 218.646 216.416 216.387 215.513 216.387C214.609 216.387 213.631 217.14 213.255 217.517L196.317 223.727C195.753 224.291 193.607 225.872 194.059 227.679C194.624 229.937 203.657 231.631 204.221 232.196C204.786 232.76 205.915 238.97 205.35 240.664C204.786 242.358 201.398 244.052 201.398 246.874C201.398 249.697 204.786 252.52 208.738 251.956C212.69 251.391 218.336 246.31 222.852 243.487C226.465 241.229 237.531 243.299 242.612 244.616Z" fill="white"/>
<path d="M262.937 284.701L261.243 284.136C260.679 284.325 259.324 284.927 258.421 285.83C257.291 286.959 255.033 290.911 254.469 292.605C254.017 293.96 252.398 301.826 251.646 305.59L249.387 343.417C248.446 353.203 246.564 373.791 246.564 377.856C246.564 381.921 245.435 390.088 244.871 393.664C242.236 402.885 236.628 422.344 235.273 426.409C233.579 431.49 225.675 456.896 225.111 459.719C224.659 461.977 224.17 474.586 223.982 480.608L222.288 489.077C220.594 495.663 217.094 509.401 216.642 511.66C216.077 514.483 209.867 522.387 207.044 522.951C204.221 523.516 203.092 512.224 203.092 507.143C203.092 502.062 204.221 477.221 205.915 461.977C207.27 449.782 214.76 421.14 218.336 408.343L218.9 402.132C220.03 394.04 222.288 377.065 222.288 373.904C222.288 369.952 222.288 327.609 220.029 301.074C217.771 274.539 225.675 271.716 231.886 264.941C238.096 258.166 252.775 258.166 265.195 259.86C277.616 261.553 279.31 268.328 279.31 273.409C279.31 278.491 275.922 281.878 273.099 287.524L265.76 302.203L256.727 301.638C256.915 301.262 257.291 300.057 257.291 298.251C257.291 296.444 261.055 288.465 262.937 284.701Z" fill="white"/>
<path d="M252.775 298.251C252.323 300.961 252.022 304.461 251.646 306.719L256.162 306.155V303.332L256.5 300.5L257.856 296.557L259.55 292.04C259.926 290.911 262.937 284.701 262.937 284.701L261.244 284.136C260.679 284.136 260.001 284.249 257.291 286.959C253.904 290.347 253.339 294.863 252.775 298.251Z" fill="#9AA5AC"/>
<path d="M251.646 527.468V548.357V548.922L415.937 547.792L419.324 546.099C420.453 545.534 425.066 543.102 429.5 534C439 514.5 437.129 484.098 436 474.5C434.871 464.902 431.18 441.088 426.664 425.28C422.147 409.472 418.195 390.841 413.678 375.597C409.162 360.354 401.822 337.771 397.306 325.915C392.789 314.059 379.94 287.845 374.158 280.184C371 276 356.092 260.989 349.317 254.214C343.897 248.794 328.239 238.406 321.088 233.889C316.948 229.561 304.828 220.452 289.472 218.646C274.116 216.839 258.42 227.679 254.468 233.889H251.081L235.273 262.118C235.649 261.93 237.983 261.779 242.048 260.424C247.129 258.73 254.468 258.166 267.454 260.424C280.439 262.683 281.003 270.022 278.745 277.926C276.939 284.249 269.336 296.745 265.76 302.203L256 301.5L255.598 306.719L279.5 305L303.022 306.155L311.5 310L312.5 314L313 320.5C312.624 326.899 311.49 342.4 311.49 349.627C311.49 358.66 313.749 368.258 316.572 376.162C318.83 382.485 336.708 403.261 345.365 412.859L357.221 442.782V446.734C357.409 448.427 357.898 452.154 358.35 453.509C358.802 454.863 364.184 483.055 366.819 496.981C364.749 497.357 359.592 498.223 355.527 498.674C350.446 499.239 321.088 503.756 305.845 506.578C293.65 508.837 264.631 521.446 251.646 527.468Z" fill="#9AA5AC"/>
<rect x="0.974854" y="548.921" width="560.057" height="22.583" rx="2" fill="#9AA5AC"/>
<rect x="3.23315" y="553.438" width="554.412" height="3.38744" fill="white"/>
<rect x="3.23315" y="559.084" width="554.412" height="3.38744" fill="white"/>
<rect x="3.23315" y="564.73" width="554.412" height="3.38744" fill="white"/>
<path d="M316.572 376.162C309.345 362.16 311.302 333.442 313.184 319.704C312.808 318.011 312.055 314.059 312.055 311.8C312.055 308.978 310.361 310.107 305.28 306.719C301.215 304.009 268.395 305.59 252.21 306.719C250.705 330.62 246.79 380.791 245.435 390.276C243.742 402.132 226.24 454.638 225.111 459.719C224.207 463.784 223.605 476.468 223.417 482.302C222.664 486.254 220.82 495.739 219.465 502.062C217.771 509.966 210.996 522.951 208.738 522.951C206.48 522.951 204.786 522.387 203.657 515.612C202.528 508.837 203.092 474.962 207.609 454.638C211.222 438.378 215.889 416.999 217.771 408.343H213.255H205.915C202.528 408.343 190.107 407.213 180.509 402.697C170.912 398.18 160.749 381.808 157.926 371.645C155.103 361.483 157.926 336.077 162.443 325.35C166.96 314.623 172.605 291.476 173.17 287.524C173.734 283.572 173.17 276.797 172.605 262.683C172.041 248.568 175.993 245.181 178.251 237.277C180.509 229.373 188.413 224.856 193.495 221.469C198.576 218.081 212.69 213 214.384 213C215.739 213 220.218 216.764 222.288 218.646L231.321 219.21C234.144 220.904 236.817 223.013 237.531 223.727C238.66 224.856 240.166 230.502 240.919 233.889H254.469C255.974 230.314 263.389 222.372 281.003 219.21C303.022 215.258 318.83 233.325 332.944 241.793C344.236 248.568 359.479 263.812 365.69 270.587C368.889 273.409 378.11 284.814 389.402 307.848C403.516 336.642 412.549 367.129 427.793 429.232C443.036 491.335 435.697 517.305 431.18 529.726C427.567 539.663 419.512 546.287 415.937 548.357H251.081C226.052 549.11 175.315 550.164 172.605 548.357C169.962 546.595 202.917 529.289 220.955 520.231C221.819 519.798 222.803 519.697 223.739 519.94L252.775 527.468C266.889 521.446 290.972 508.217 313.184 504.885C335.767 501.497 353.834 498.674 366.819 496.981C366.254 494.722 364.335 486.706 363.431 481.737C362.302 475.527 357.221 452.379 357.221 445.04C357.221 437.7 346.494 416.247 345.365 412.859C344.236 409.472 325.605 393.664 316.572 376.162Z" stroke="#CCD1D5"/>
</svg>
